<mxfile host="app.diagrams.net" modified="2023-10-25T06:21:04.204Z" agent="Mozilla/5.0 (Windows NT 10.0; Win64; x64) AppleWebKit/537.36 (KHTML, like Gecko) Chrome/118.0.0.0 Safari/537.36" etag="zV1d9tvgAyY6gqZI7NKb" version="22.0.7" type="device">
  <diagram name="Page-1" id="k6ydfUEqmBqtn3syEcuz">
    <mxGraphModel dx="1221" dy="646" grid="1" gridSize="10" guides="1" tooltips="1" connect="1" arrows="1" fold="1" page="1" pageScale="1" pageWidth="827" pageHeight="1169" math="0" shadow="0">
      <root>
        <mxCell id="0" />
        <mxCell id="1" parent="0" />
        <mxCell id="OW2RZlyd2mmtpAqqbnLQ-12" value="&lt;b&gt;1.0&lt;/b&gt;" style="swimlane;childLayout=stackLayout;horizontal=1;startSize=40;horizontalStack=0;rounded=1;fontSize=14;fontStyle=0;strokeWidth=2;resizeParent=0;resizeLast=1;shadow=0;dashed=0;align=center;arcSize=4;whiteSpace=wrap;html=1;" parent="1" vertex="1">
          <mxGeometry x="120" y="260" width="140" height="90" as="geometry">
            <mxRectangle x="330" y="270" width="80" height="50" as="alternateBounds" />
          </mxGeometry>
        </mxCell>
        <mxCell id="OW2RZlyd2mmtpAqqbnLQ-13" value="&lt;b&gt;Mask &lt;br&gt;Generation&lt;/b&gt;" style="align=center;strokeColor=none;fillColor=none;spacingLeft=4;fontSize=12;verticalAlign=top;resizable=0;rotatable=0;part=1;html=1;" parent="OW2RZlyd2mmtpAqqbnLQ-12" vertex="1">
          <mxGeometry y="40" width="140" height="50" as="geometry" />
        </mxCell>
        <mxCell id="OW2RZlyd2mmtpAqqbnLQ-14" value="&lt;b&gt;Image&lt;/b&gt;" style="edgeStyle=orthogonalEdgeStyle;rounded=1;orthogonalLoop=1;jettySize=auto;html=1;exitX=0.5;exitY=0;exitDx=0;exitDy=0;entryX=0.5;entryY=1;entryDx=0;entryDy=0;" parent="1" target="OW2RZlyd2mmtpAqqbnLQ-12" edge="1">
          <mxGeometry relative="1" as="geometry">
            <mxPoint x="190" y="440" as="sourcePoint" />
          </mxGeometry>
        </mxCell>
        <mxCell id="OW2RZlyd2mmtpAqqbnLQ-16" value="&lt;b&gt;2.0&lt;/b&gt;" style="swimlane;childLayout=stackLayout;horizontal=1;startSize=40;horizontalStack=0;rounded=1;fontSize=14;fontStyle=0;strokeWidth=2;resizeParent=0;resizeLast=1;shadow=0;dashed=0;align=center;arcSize=4;whiteSpace=wrap;html=1;" parent="1" vertex="1">
          <mxGeometry x="390" y="260" width="140" height="90" as="geometry">
            <mxRectangle x="330" y="270" width="80" height="50" as="alternateBounds" />
          </mxGeometry>
        </mxCell>
        <mxCell id="OW2RZlyd2mmtpAqqbnLQ-17" value="&lt;b&gt;Mask&amp;nbsp;Refinement &lt;br&gt;through RL&lt;/b&gt;" style="align=center;strokeColor=none;fillColor=none;spacingLeft=4;fontSize=12;verticalAlign=top;resizable=0;rotatable=0;part=1;html=1;" parent="OW2RZlyd2mmtpAqqbnLQ-16" vertex="1">
          <mxGeometry y="40" width="140" height="50" as="geometry" />
        </mxCell>
        <mxCell id="OW2RZlyd2mmtpAqqbnLQ-19" value="&lt;b&gt;Generated&lt;br&gt;Mask&lt;/b&gt;" style="edgeStyle=orthogonalEdgeStyle;rounded=1;orthogonalLoop=1;jettySize=auto;html=1;exitX=1;exitY=0;exitDx=0;exitDy=0;entryX=0;entryY=0;entryDx=0;entryDy=0;" parent="1" source="OW2RZlyd2mmtpAqqbnLQ-13" target="OW2RZlyd2mmtpAqqbnLQ-17" edge="1">
          <mxGeometry relative="1" as="geometry">
            <Array as="points">
              <mxPoint x="300" y="300" />
              <mxPoint x="300" y="300" />
            </Array>
          </mxGeometry>
        </mxCell>
        <mxCell id="OW2RZlyd2mmtpAqqbnLQ-20" value="&lt;b&gt;3.0&lt;/b&gt;" style="swimlane;childLayout=stackLayout;horizontal=1;startSize=40;horizontalStack=0;rounded=1;fontSize=14;fontStyle=0;strokeWidth=2;resizeParent=0;resizeLast=1;shadow=0;dashed=0;align=center;arcSize=4;whiteSpace=wrap;html=1;" parent="1" vertex="1">
          <mxGeometry x="660" y="260" width="140" height="90" as="geometry">
            <mxRectangle x="330" y="270" width="80" height="50" as="alternateBounds" />
          </mxGeometry>
        </mxCell>
        <mxCell id="OW2RZlyd2mmtpAqqbnLQ-21" value="&lt;b&gt;mask-to-annotation&lt;/b&gt;" style="align=center;strokeColor=none;fillColor=none;spacingLeft=4;fontSize=12;verticalAlign=top;resizable=0;rotatable=0;part=1;html=1;" parent="OW2RZlyd2mmtpAqqbnLQ-20" vertex="1">
          <mxGeometry y="40" width="140" height="50" as="geometry" />
        </mxCell>
        <mxCell id="OW2RZlyd2mmtpAqqbnLQ-22" value="&lt;b&gt;Refined&lt;br&gt;Mask&lt;/b&gt;" style="edgeStyle=orthogonalEdgeStyle;rounded=1;orthogonalLoop=1;jettySize=auto;html=1;exitX=1;exitY=0;exitDx=0;exitDy=0;entryX=0;entryY=0;entryDx=0;entryDy=0;" parent="1" source="OW2RZlyd2mmtpAqqbnLQ-17" target="OW2RZlyd2mmtpAqqbnLQ-21" edge="1">
          <mxGeometry relative="1" as="geometry">
            <Array as="points">
              <mxPoint x="570" y="300" />
              <mxPoint x="570" y="300" />
            </Array>
          </mxGeometry>
        </mxCell>
        <mxCell id="OW2RZlyd2mmtpAqqbnLQ-15" value="&lt;b&gt;Label&lt;/b&gt;" style="rounded=1;orthogonalLoop=1;jettySize=auto;html=1;exitX=1;exitY=0.5;exitDx=0;exitDy=0;entryX=0.5;entryY=1;entryDx=0;entryDy=0;edgeStyle=orthogonalEdgeStyle;" parent="1" target="OW2RZlyd2mmtpAqqbnLQ-21" edge="1">
          <mxGeometry relative="1" as="geometry">
            <mxPoint x="430" y="460" as="targetPoint" />
            <mxPoint x="270" y="460" as="sourcePoint" />
          </mxGeometry>
        </mxCell>
        <mxCell id="OW2RZlyd2mmtpAqqbnLQ-27" value="&lt;b&gt;D2&lt;/b&gt;" style="html=1;dashed=0;whiteSpace=wrap;shape=mxgraph.dfd.dataStoreID;align=left;spacingLeft=3;points=[[0,0],[0.5,0],[1,0],[0,0.5],[1,0.5],[0,1],[0.5,1],[1,1]];strokeWidth=2;" parent="1" vertex="1">
          <mxGeometry x="930" y="280" width="160" height="40" as="geometry" />
        </mxCell>
        <mxCell id="OW2RZlyd2mmtpAqqbnLQ-28" value="&lt;b&gt;Annotated Dataset&lt;br&gt;with Masks&lt;br&gt;&lt;/b&gt;" style="text;html=1;strokeColor=none;fillColor=none;align=center;verticalAlign=middle;whiteSpace=wrap;rounded=0;" parent="1" vertex="1">
          <mxGeometry x="960" y="285" width="130" height="30" as="geometry" />
        </mxCell>
        <mxCell id="OW2RZlyd2mmtpAqqbnLQ-29" value="&lt;b&gt;Annotation&lt;/b&gt;" style="edgeStyle=orthogonalEdgeStyle;rounded=0;orthogonalLoop=1;jettySize=auto;html=1;exitX=1;exitY=0.341;exitDx=0;exitDy=0;entryX=-0.019;entryY=0.267;entryDx=0;entryDy=0;entryPerimeter=0;exitPerimeter=0;" parent="1" source="OW2RZlyd2mmtpAqqbnLQ-20" target="OW2RZlyd2mmtpAqqbnLQ-27" edge="1">
          <mxGeometry relative="1" as="geometry" />
        </mxCell>
        <mxCell id="OW2RZlyd2mmtpAqqbnLQ-30" value="&lt;b&gt;Mask&lt;/b&gt;" style="edgeStyle=orthogonalEdgeStyle;rounded=0;orthogonalLoop=1;jettySize=auto;html=1;exitX=1;exitY=0.25;exitDx=0;exitDy=0;entryX=-0.01;entryY=0.783;entryDx=0;entryDy=0;entryPerimeter=0;" parent="1" source="OW2RZlyd2mmtpAqqbnLQ-21" target="OW2RZlyd2mmtpAqqbnLQ-27" edge="1">
          <mxGeometry relative="1" as="geometry">
            <Array as="points">
              <mxPoint x="800" y="311" />
            </Array>
          </mxGeometry>
        </mxCell>
        <mxCell id="Odq5MsR1YtGany7BjkkA-3" value="&lt;b&gt;D1&lt;/b&gt;" style="html=1;dashed=0;whiteSpace=wrap;shape=mxgraph.dfd.dataStoreID;align=left;spacingLeft=3;points=[[0,0],[0.5,0],[1,0],[0,0.5],[1,0.5],[0,1],[0.5,1],[1,1]];strokeWidth=2;" vertex="1" parent="1">
          <mxGeometry x="110" y="440" width="160" height="40" as="geometry" />
        </mxCell>
        <mxCell id="Odq5MsR1YtGany7BjkkA-4" value="&lt;b&gt;Image Classification&lt;br&gt;Dataset&lt;br&gt;&lt;/b&gt;" style="text;html=1;strokeColor=none;fillColor=none;align=center;verticalAlign=middle;whiteSpace=wrap;rounded=0;" vertex="1" parent="1">
          <mxGeometry x="140" y="445" width="130" height="30" as="geometry" />
        </mxCell>
      </root>
    </mxGraphModel>
  </diagram>
</mxfile>
